<?xml version="1.0" encoding="utf-8"?>
<!-- Generator: Adobe Illustrator 24.3.0, SVG Export Plug-In . SVG Version: 6.00 Build 0)  -->
<svg version="1.1" id="Capa_1" xmlns="http://www.w3.org/2000/svg" xmlns:xlink="http://www.w3.org/1999/xlink" x="0px" y="0px"
	 viewBox="0 0 512 512" style="enable-background:new 0 0 512 512;" xml:space="preserve">
<style type="text/css">
	.st0{fill:#FFFFFF;}
</style>
<g>
	<g>
		<path class="st0" d="M256,512c141.2,0,256-114.8,256-256S397.2,0,256,0C114.8,0,0,114.9,0,256C0,397.1,114.8,512,256,512z
			 M256,39.7c119.3,0,216.3,97,216.3,216.3S375.3,472.3,256,472.3c-119.3,0-216.3-97-216.3-216.3S136.7,39.7,256,39.7z"/>
	</g>
</g>
<g>
	<g>
		<path class="st0" d="M142.8,228.6l99.1,99.1c7.7,7.7,20.2,7.7,28,0l99.1-99.1c6.4-7.4,6.4-18.4,0-25.8c-7.1-8.3-19.7-9.3-28-2.2
			L256,285.7l-85.3-85.1c-7.7-7.7-20.2-7.7-28,0C135.1,208.4,135.1,220.9,142.8,228.6z"/>
	</g>
</g>
</svg>
