<svg width="42" height="42" viewBox="0 0 42 42" fill="none" xmlns="http://www.w3.org/2000/svg">
<circle cx="21" cy="21" r="20.25" stroke="#0BB4FA" stroke-width="1.5"/>
<path d="M34.8131 20.4777C32.2683 17.3772 26.8804 13.7589 21 13.7589C15.0985 13.7589 9.71037 17.4018 7.1868 20.4777C6.93765 20.7814 6.93765 21.2187 7.1868 21.5224C9.79201 24.6979 15.1925 28.2413 21 28.2413C27.0138 28.2413 32.3787 24.4884 34.8131 21.5225C35.0623 21.2187 35.0623 20.7814 34.8131 20.4777ZM26.5941 21.0001C26.5941 24.0847 24.0846 26.5942 20.9999 26.5942C17.9152 26.5942 15.4057 24.0845 15.4057 21.0001C15.4057 17.9155 17.9152 15.4059 20.9999 15.4059C24.0849 15.4059 26.5941 17.9158 26.5941 21.0001ZM8.93592 21.0003C9.86283 20.0369 12.0978 17.9578 15.2352 16.6234C13.2663 19.2105 13.2655 22.7875 15.2342 25.3755C12.8488 24.3645 10.6328 22.7671 8.93592 21.0003ZM26.7648 25.3767C28.7337 22.7895 28.7344 19.2127 26.7657 16.6247C29.151 17.6357 31.3671 19.233 33.064 20.9998C32.1371 21.9633 29.9022 24.0422 26.7648 25.3767Z" fill="#0BB4FA"/>
<path d="M18.2 21C18.2 22.544 19.456 23.8 20.9999 23.8C22.5438 23.8 23.7999 22.544 23.7999 21C23.7999 19.4561 22.5438 18.2 20.9999 18.2C19.456 18.2 18.2 19.4561 18.2 21ZM22.1529 21C22.1529 21.6358 21.6357 22.1529 20.9999 22.1529C20.3642 22.1529 19.847 21.6358 19.847 21C19.847 20.3642 20.3642 19.8471 20.9999 19.8471C21.6357 19.8471 22.1529 20.3642 22.1529 21Z" fill="#0BB4FA"/>
</svg>
