<svg width="28" height="16" viewBox="0 0 28 16" fill="none" xmlns="http://www.w3.org/2000/svg">
<path d="M27.8131 7.47773C25.2683 4.37719 19.8804 0.758879 14 0.758879C8.0985 0.758879 2.71037 4.40179 0.186798 7.47773C-0.0623473 7.78139 -0.0623473 8.21874 0.186798 8.5224C2.79201 11.6979 8.19255 15.2413 14 15.2413C20.0138 15.2413 25.3787 11.4884 27.8131 8.52246C28.0623 8.21874 28.0623 7.78139 27.8131 7.47773ZM19.5941 8.00006C19.5941 11.0847 17.0846 13.5942 13.9999 13.5942C10.9152 13.5942 8.40573 11.0845 8.40573 8.00006C8.40573 4.91545 10.9152 2.40588 13.9999 2.40588C17.0849 2.40594 19.5941 4.91578 19.5941 8.00006ZM1.93592 8.00028C2.86283 7.03692 5.09778 4.95784 8.23515 3.62344C6.26626 6.21053 6.26549 9.78745 8.23422 12.3755C5.84878 11.3645 3.63283 9.76714 1.93592 8.00028ZM19.7648 12.3767C21.7337 9.78954 21.7344 6.21267 19.7657 3.62465C22.151 4.63567 24.3671 6.23304 26.064 7.99979C25.1371 8.96326 22.9022 11.0422 19.7648 12.3767Z" fill="#0BB4FA"/>
<path d="M11.2 8.00001C11.2 9.54396 12.456 10.8 13.9999 10.8C15.5438 10.8 16.7999 9.54396 16.7999 8.00001C16.7999 6.45606 15.5438 5.20001 13.9999 5.20001C12.456 5.20001 11.2 6.45606 11.2 8.00001ZM15.1529 8.00001C15.1529 8.63577 14.6357 9.15295 13.9999 9.15295C13.3642 9.15295 12.847 8.63577 12.847 8.00001C12.847 7.36424 13.3642 6.84707 13.9999 6.84707C14.6357 6.84707 15.1529 7.36424 15.1529 8.00001Z" fill="#0BB4FA"/>
</svg>
