<?xml version="1.0" encoding="utf-8"?>
<!-- Generator: Adobe Illustrator 24.3.0, SVG Export Plug-In . SVG Version: 6.00 Build 0)  -->
<svg version="1.1" id="Layer_1" xmlns="http://www.w3.org/2000/svg" xmlns:xlink="http://www.w3.org/1999/xlink" x="0px" y="0px"
	 viewBox="0 0 19 19" style="enable-background:new 0 0 19 19;" xml:space="preserve">
<style type="text/css">
	.st0{fill:#FFFFFF;}
</style>
<path class="st0" d="M9.5,0C5.7,0,2.3,2.3,0.8,5.8l-0.1,0l0,0.1c-2,4.9,0.4,10.4,5.2,12.4C7.1,18.8,8.3,19,9.5,19
	c5.2,0,9.5-4.3,9.5-9.5C19,4.3,14.7,0,9.5,0z M17,14.3l-0.5-0.5v-1.1c0,0,0-0.1,0-0.1l-1.2-2.5V8.9c0-0.1-0.1-0.2-0.1-0.3L14.1,8
	c-0.1,0-0.2-0.1-0.3,0l-1.2,0.3l-2-0.8l-0.3-1.9l0.7-0.7h1.6l0.5,0.8c0,0.1,0.1,0.1,0.2,0.1L15.5,6c0.1,0,0.1,0,0.2,0l1.7-0.6
	C18.8,8.2,18.7,11.6,17,14.3z M15.6,3.1l-0.5,0.3l-1.4-0.3l-0.9-0.3c-0.1,0-0.1,0-0.2,0l-1.2,0.3L10.9,3l0.4-0.8h1.1
	c0,0,0.1,0,0.1,0l1.1-0.5C14.3,2,15,2.5,15.6,3.1z M6,1.3l0.8,0.5c0,0,0.1,0,0.1,0l1.5,0.3L8.3,2.6L7.5,2.9C7.4,2.9,7.4,2.9,7.3,3
	L6.4,4.5L5,5.4L2.8,5.7C2.7,5.7,2.5,5.9,2.5,6V7c0,0.1,0,0.2,0.1,0.2l0.5,0.5v0.5L1.9,7.4L1.4,6C2.3,3.9,3.9,2.2,6,1.3z M5.1,11.7
	l-1.4-0.3l-0.5-1.1V9.6l1.2-1.2l0.4,0.9c0.1,0.1,0.2,0.2,0.3,0.2h2L8,10.9C8,11,8.1,11.1,8.2,11.1h0.9l-0.2,1.1l-1.2,1.2
	c-0.1,0.1-0.1,0.1-0.1,0.2v0.8l-1.1,0.9c-0.1,0.1-0.1,0.2-0.1,0.3v1.1l-0.4-0.1l-0.6-1.4V12C5.4,11.9,5.3,11.8,5.1,11.7z M4.2,16.6
	c-3-2.2-4.2-6.1-3.2-9.7l0.3,0.8c0,0.1,0.1,0.1,0.1,0.2L3,8.9L2.6,9.3C2.6,9.3,2.5,9.4,2.5,9.5v0.9c0,0,0,0.1,0,0.1l0.6,1.3
	c0,0.1,0.1,0.1,0.2,0.2l1.3,0.3v2.9c0,0,0,0.1,0,0.1l0.6,1.6c0,0.1,0.1,0.2,0.2,0.2l0.9,0.3c0,0,0.1,0,0.1,0c0.2,0,0.3-0.1,0.3-0.3
	v-1.4l1.1-0.9c0.1-0.1,0.1-0.2,0.1-0.3v-0.8l1.2-1.2c0,0,0.1-0.1,0.1-0.2l0.3-1.6c0-0.2-0.1-0.3-0.2-0.4c0,0,0,0-0.1,0H8.4L7.6,9
	C7.5,8.9,7.4,8.9,7.3,8.9h-2L4.7,7.8c0-0.1-0.1-0.2-0.2-0.2c-0.1,0-0.2,0-0.3,0.1L3.8,8.1V7.6c0-0.1,0-0.2-0.1-0.2L3.2,6.8V6.3
	L5.1,6c0,0,0.1,0,0.1,0L6.8,5c0,0,0.1-0.1,0.1-0.1l0.9-1.5l0.8-0.3c0.1,0,0.2-0.1,0.2-0.2L9.2,2c0.1-0.2,0-0.3-0.2-0.4c0,0,0,0,0,0
	L7.1,1.3L6.8,1.1c2-0.6,4.2-0.6,6.1,0.2l-0.6,0.3h-1.2c-0.1,0-0.2,0.1-0.3,0.2L10.2,3c-0.1,0.2,0,0.3,0.1,0.4c0,0,0,0,0,0l0.9,0.3
	c0.1,0,0.1,0,0.2,0l1.2-0.3l0.9,0.3c0,0,0,0,0,0l1.6,0.3c0.1,0,0.2,0,0.2,0l0.7-0.5c0.4,0.4,0.7,0.8,1,1.3l-1.6,0.5l-1.7-0.3
	l-0.6-0.8c-0.1-0.1-0.2-0.1-0.3-0.1h-1.9c-0.1,0-0.2,0-0.2,0.1L9.9,5.2C9.8,5.2,9.8,5.3,9.8,5.4l0.3,2.2c0,0.1,0.1,0.2,0.2,0.2
	l2.2,0.9c0.1,0,0.1,0,0.2,0l1.1-0.3L14.6,9v1.1c0,0,0,0.1,0,0.1l1.2,2.5v1.2c0,0.1,0,0.2,0.1,0.2l0.7,0.7
	C13.7,18.7,8.1,19.5,4.2,16.6z"/>
</svg>
