{
	"asset":{
		"version":"2.0",
		"generator":"Created using the official Cinema 4D glTF Exporter 1.000x284978"
	},
	"materials":[{
		"pbrMetallicRoughness":{
			"baseColorFactor":[0.22244680851063837,
			0.19531914893617029,
			0.51,
			1.0],
			"metallicFactor":0.0,
			"roughnessFactor":0.5
		},
		"emissiveFactor":[0.0,
		0.0,
		0.0],
		"name":"Logo_OK_Chico:phongE3SG",
		"alphaMode":"OPAQUE",
		"doubleSided":false
	},
	{
		"pbrMetallicRoughness":{
			"baseColorFactor":[0.17360000000000004,
			0.1411764705882353,
			0.3686274509803922,
			1.0],
			"metallicFactor":0.0,
			"roughnessFactor":0.5
		},
		"emissiveFactor":[0.0,
		0.0,
		0.0],
		"name":"Logo_OK_Chico:blinn3SG",
		"alphaMode":"OPAQUE",
		"doubleSided":false
	}],
	"scenes":[{
		"nodes":[0]
	}],
	"nodes":[{
		"name":"Default",
		"translation":[0.1058623194694519,
		0.12312665581703186,
		-0.16735310852527619],
		"rotation":[0.0,
		0.0,
		0.0,
		-1.0],
		"scale":[1.0,
		1.0,
		1.0],
		"children":[1,
		2]
	},
	{
		"name":"Default-Logo_OK_Chico:phongE3SG",
		"mesh":0
	},
	{
		"name":"Default-Logo_OK_Chico:blinn3SG",
		"mesh":1
	}],
	"meshes":[{
		"name":"Default-Logo_OK_Chico:phongE3SG",
		"primitives":[{
			"attributes":{
				"POSITION":1,
				"NORMAL":2,
				"TEXCOORD_0":3
			},
			"indices":0,
			"material":0
		}]
	},
	{
		"name":"Default-Logo_OK_Chico:blinn3SG",
		"primitives":[{
			"attributes":{
				"POSITION":5,
				"NORMAL":6,
				"TEXCOORD_0":7
			},
			"indices":4,
			"material":1
		}]
	}],
	"accessors":[{
		"bufferView":0,
		"type":"SCALAR",
		"componentType":5123,
		"count":154458,
		"byteOffset":0,
		"min":[0],
		"max":[26051]
	},
	{
		"bufferView":1,
		"type":"VEC3",
		"componentType":5126,
		"count":26052,
		"byteOffset":0,
		"min":[-0.7070789933204651,
		-0.7535830140113831,
		-0.7433009743690491],
		"max":[0.7428200244903565,
		0.7536020278930664,
		0.7421079874038696]
	},
	{
		"bufferView":1,
		"type":"VEC3",
		"componentType":5126,
		"count":26052,
		"byteOffset":12,
		"min":[-0.9999688267707825,
		-0.9999688267707825,
		-0.9999688267707825],
		"max":[0.9999688267707825,
		0.9999688267707825,
		0.9999688267707825]
	},
	{
		"bufferView":1,
		"type":"VEC2",
		"componentType":5126,
		"count":26052,
		"byteOffset":24,
		"min":[0.0,
		0.0],
		"max":[1.0,
		1.0]
	},
	{
		"bufferView":2,
		"type":"SCALAR",
		"componentType":5123,
		"count":9360,
		"byteOffset":0,
		"min":[0],
		"max":[1676]
	},
	{
		"bufferView":3,
		"type":"VEC3",
		"componentType":5126,
		"count":1677,
		"byteOffset":0,
		"min":[-0.7219110131263733,
		-0.7324150204658508,
		-0.7219110131263733],
		"max":[0.7219110131263733,
		0.7324150204658508,
		0.7219110131263733]
	},
	{
		"bufferView":3,
		"type":"VEC3",
		"componentType":5126,
		"count":1677,
		"byteOffset":12,
		"min":[-0.9999688267707825,
		-1.0,
		-0.9999688267707825],
		"max":[0.9999688267707825,
		1.0,
		0.9999688267707825]
	},
	{
		"bufferView":3,
		"type":"VEC2",
		"componentType":5126,
		"count":1677,
		"byteOffset":24,
		"min":[0.0,
		0.0],
		"max":[1.0,
		1.0]
	}],
	"bufferViews":[{
		"buffer":0,
		"byteOffset":0,
		"byteLength":308916,
		"target":34963
	},
	{
		"buffer":0,
		"byteOffset":308916,
		"byteLength":833664,
		"target":34962,
		"byteStride":32
	},
	{
		"buffer":1,
		"byteOffset":0,
		"byteLength":18720,
		"target":34963
	},
	{
		"buffer":1,
		"byteOffset":18720,
		"byteLength":53664,
		"target":34962,
		"byteStride":32
	}],
	"buffers":[{
		"uri":"data:application/octet-stream;base64,",
		"byteLength":1142580
	},
	{
		"uri":"data:application/octet-stream;base64,",
		"byteLength":72384
	}]
}